<svg width="48" height="48" fill="none" xmlns="http://www.w3.org/2000/svg"><path d="M35.816 12.935a3.053 3.053 0 00-2.24-.935H15.174a3.054 3.054 0 00-2.24.935 3.057 3.057 0 00-.935 2.24v18.4a3.055 3.055 0 00.935 2.24 3.056 3.056 0 002.24.935h18.4a3.192 3.192 0 003.175-3.175v-18.4a3.056 3.056 0 00-.934-2.24zm-14.93 7.984a4.863 4.863 0 013.506-1.41 4.883 4.883 0 013.52 1.41 4.712 4.712 0 010 6.816 4.881 4.881 0 01-3.52 1.41 4.865 4.865 0 01-3.505-1.41 4.712 4.712 0 010-6.816zm13.06 11.998a.94.94 0 01-.29.7.96.96 0 01-.692.281H15.739a.964.964 0 01-.984-.983V22.474h2.272a6.936 6.936 0 00-.323 2.11 7.075 7.075 0 002.257 5.279 7.528 7.528 0 005.43 2.183 7.748 7.748 0 003.868-1 7.52 7.52 0 002.804-2.715 7.139 7.139 0 001.031-3.746 6.939 6.939 0 00-.323-2.11h2.176v10.442zm0-14.39a1.1 1.1 0 01-1.111 1.113H30.03a1.1 1.1 0 01-1.111-1.111v-2.661a1.08 1.08 0 01.323-.782 1.06 1.06 0 01.789-.33h2.804a1.061 1.061 0 01.79.33 1.08 1.08 0 01.322.782v2.658l-.001.002z" fill="gray"/></svg>