<svg width="48" height="48" fill="none" xmlns="http://www.w3.org/2000/svg"><path d="M18.198 36.483v-3.05h-6.183c-.006-.127-.015-.227-.015-.325 0-5.737 0-11.474.003-17.21 0-.17.028-.339.081-.5.456-1.382.923-2.762 1.377-4.148a.292.292 0 01.333-.247c7.566.006 15.132.008 22.697.005h.254v.321c0 4.944.002 9.889.005 14.833a.632.632 0 01-.207.493 2625.04 2625.04 0 00-6.573 6.566.629.629 0 01-.495.204c-1.33-.01-2.663 0-3.995-.01a.775.775 0 00-.619.25 202.53 202.53 0 01-2.664 2.661.549.549 0 01-.332.166c-1.19.012-2.382.007-3.57.006a.672.672 0 01-.097-.015zm-2.355-23.18v16.282h5.43v3.086l.175-.166c.917-.913 1.835-1.824 2.745-2.742a.566.566 0 01.444-.184c1.898.007 3.796.005 5.695-.003a.65.65 0 00.412-.171c1.183-1.165 2.354-2.345 3.534-3.514a.566.566 0 00.18-.444l-.001-11.861v-.283H15.843zm8.52 4.69v6.883h-2.296v-6.882h2.296zm6.176 6.891h-2.255v-6.89h2.255v6.89z" fill="gray"/></svg>