<svg width="48" height="48" fill="none" xmlns="http://www.w3.org/2000/svg"><path d="M39 14.85c-1.126.486-2.32.802-3.54.939a5.898 5.898 0 002.703-3.339 12.182 12.182 0 01-3.904 1.463 6.16 6.16 0 00-1.998-1.395 6.246 6.246 0 00-4.802-.076 6.17 6.17 0 00-2.043 1.33 5.834 5.834 0 00-1.35 1.959 5.76 5.76 0 00-.45 2.325c.003.466.055.93.156 1.386a17.342 17.342 0 01-7.076-1.862 17.384 17.384 0 01-5.609-4.472 5.863 5.863 0 00-.837 3.056 5.828 5.828 0 00.742 2.89 6.084 6.084 0 002 2.155 6.17 6.17 0 01-2.78-.77v.075a5.798 5.798 0 001.399 3.852 6.065 6.065 0 003.531 2.09 6.459 6.459 0 01-1.618.207 7.953 7.953 0 01-1.156-.095 6.072 6.072 0 002.192 3.006 6.226 6.226 0 003.557 1.194 12.159 12.159 0 01-7.634 2.587c-.495.003-.99-.022-1.483-.074A17.27 17.27 0 0018.44 36c2.094.015 4.174-.33 6.147-1.02a15.698 15.698 0 004.912-2.738 18.398 18.398 0 003.513-3.947 17.465 17.465 0 002.198-4.659 16.961 16.961 0 00.706-5.654A12.77 12.77 0 0039 14.851z" fill="gray"/></svg>