<svg width="48" height="48" fill="none" xmlns="http://www.w3.org/2000/svg"><path d="M33.886 24.173a2.704 2.704 0 00-.776-1.4 2.514 2.514 0 00-1.408-.677c-1.674-.19-4.2-.285-7.577-.285-3.376 0-5.897.095-7.562.285a2.433 2.433 0 00-1.405.669 2.729 2.729 0 00-.793 1.408 25.682 25.682 0 00-.355 4.98 25.15 25.15 0 00.355 4.98c.11.545.386 1.038.785 1.408.387.37.878.6 1.4.654a70.04 70.04 0 007.575.297 70.038 70.038 0 007.576-.298 2.346 2.346 0 001.392-.654c.397-.373.674-.865.792-1.408a25.63 25.63 0 00.355-4.98 25.173 25.173 0 00-.354-4.98zM19.785 25.61h-1.46v8.095h-1.366V25.61h-1.432v-1.337h4.258v1.337zm3.686 8.095h-1.215v-.768a2.036 2.036 0 01-.609.588c-.24.149-.507.244-.784.28a.71.71 0 01-.487-.115.765.765 0 01-.305-.412 3.67 3.67 0 01-.109-1.039v-5.562h1.215v5.178a4.07 4.07 0 00.014.5.304.304 0 00.082.213.277.277 0 00.205.085c.165-.03.32-.1.456-.204.134-.103.245-.238.322-.394V26.68h1.215v7.025zm4.64-2.106c.022.478-.02.957-.122 1.423a.993.993 0 01-.347.577.917.917 0 01-.622.205 1.647 1.647 0 01-.72-.24 1.73 1.73 0 01-.55-.542v.683h-1.214v-9.432h1.214v3.087c.14-.222.328-.407.549-.54.22-.134.467-.212.721-.228a.921.921 0 01.626.21c.178.147.3.355.344.587.103.461.145.935.122 1.408V31.6v-.001zm4.617-1.164h-2.447v1.236c0 .654.21.981.628.981a.509.509 0 00.373-.139.555.555 0 00.173-.373 7.35 7.35 0 00.027-.868h1.242v.185c.009.275 0 .55-.027.825-.034.277-.132.54-.286.768a1.689 1.689 0 01-.642.58 1.605 1.605 0 01-.833.174 1.69 1.69 0 01-.822-.173 1.77 1.77 0 01-.652-.552c-.3-.49-.44-1.07-.396-1.65v-2.461a2.838 2.838 0 01.382-1.65 1.89 1.89 0 01.648-.536 1.804 1.804 0 011.612 0c.252.126.473.309.648.535.282.498.411 1.074.369 1.65v1.466l.003.002zm-6.364-2.691a.848.848 0 00-.337.091.884.884 0 00-.277.222v4.282a.883.883 0 00.277.222.83.83 0 00.337.091c.354 0 .53-.318.53-.953v-3.002c.002-.635-.175-.953-.53-.953zm4.532 0c-.41 0-.614.322-.614.967v.654h1.229v-.653c0-.646-.205-.968-.615-.968zM18.993 16.675v3.857h1.365v-3.857L22.01 11h-1.393l-.928 3.74-.968-3.74h-1.448c.255.797.55 1.684.888 2.66.34.985.618 1.992.832 3.015zm4.846 3.956c.28.014.559-.044.812-.171a1.7 1.7 0 00.635-.555 2.898 2.898 0 00.382-1.678v-2.49a2.868 2.868 0 00-.382-1.663 1.701 1.701 0 00-.635-.556 1.62 1.62 0 00-.812-.172 1.629 1.629 0 00-.803.176 1.71 1.71 0 00-.63.55 2.869 2.869 0 00-.382 1.662v2.49a2.94 2.94 0 00.382 1.679c.163.235.38.424.63.551.25.127.525.188.803.177zm-.587-5.151c0-.654.196-.982.587-.982.391 0 .587.328.587.982v2.988c0 .665-.196.997-.587.997-.391 0-.587-.332-.587-.997V15.48zm4.341 5.15c.282-.032.553-.128.796-.28.242-.152.45-.358.61-.602v.784h1.243v-7.1h-1.243v5.42a1.124 1.124 0 01-.32.4 1.063 1.063 0 01-.459.21.275.275 0 01-.208-.092.301.301 0 01-.078-.221 3.86 3.86 0 01-.014-.5v-5.217h-1.242v5.604c-.014.359.023.718.11 1.066.056.17.167.316.313.412a.74.74 0 00.492.117z" fill="gray"/></svg>